<svg xmlns="http://www.w3.org/2000/svg" viewBox="0 0 512 512"><path fill="#9bc9ff" fill-rule="evenodd" d="M255.998 105.73c15.918 0 28.859 12.954 28.859 28.87s-12.943 28.861-28.859 28.861c-15.917 0-28.859-12.945-28.859-28.861s12.94-28.87 28.859-28.87zm133.338-88.08L437.682 66h-48.346V17.65z" clip-rule="evenodd"/><path fill="#57a4ff" fill-rule="evenodd" d="M255.998 73.41c46.911 0 85.078 38.161 85.078 85.07 0 18.59-6.009 35.8-16.17 49.809-6.929-19.929-22.156-35.69-41.416-43.489 8.208-7.47 13.368-18.251 13.368-30.201 0-22.541-18.331-40.869-40.859-40.869s-40.86 18.328-40.86 40.869c0 11.949 5.16 22.73 13.368 30.201-19.26 7.799-34.491 23.56-41.421 43.489-10.156-14.009-16.17-31.219-16.17-49.809-.001-46.909 38.17-85.07 85.082-85.07zm0 86.05c13.708 0 24.859-11.152 24.859-24.861 0-13.711-11.151-24.87-24.859-24.87-13.708 0-24.859 11.159-24.859 24.87-.001 13.71 11.151 24.861 24.859 24.861zm-56.092 62.909c14.982 13.18 34.61 21.19 56.091 21.19s41.109-8.01 56.091-21.19c-4.793-27-28.232-46.909-56.091-46.909s-51.298 19.909-56.091 46.909zm56.092 37.19c55.742 0 101.078-45.339 101.078-101.079 0-55.73-45.336-101.07-101.078-101.07-55.742 0-101.078 45.34-101.078 101.07-.001 55.74 45.336 101.079 101.078 101.079zM398.487 446.6c0 4.409-3.59 8-8 8H121.508c-4.41 0-8-3.591-8-8 0-4.421 3.59-8 8-8h268.979a8.002 8.002 0 0 1 8 8zm0-49.04c0 4.418-3.59 7.999-8 7.999H121.508c-4.41 0-8-3.58-8-7.999a8.004 8.004 0 0 1 8-8.001h268.979c4.411.001 8 3.581 8 8.001zm0-49.041c0 4.42-3.59 8.001-8 8.001H121.508c-4.41 0-8-3.581-8-8.001 0-4.419 3.59-7.999 8-7.999h268.979c4.411 0 8 3.58 8 7.999zm0-49.04c0 4.42-3.59 8-8 8H121.508c-4.41 0-8-3.58-8-8 0-4.421 3.59-7.999 8-7.999h268.979c4.411.001 8 3.579 8 7.999zM72.658 496h366.68V78h-54.001c-4.42 0-8-3.58-8-8.001V16H72.658v480zM393.336 27.307 428.026 62h-34.689V27.307h-.001zm59.648 37.043L390.997 2.34a8.005 8.005 0 0 0-5.66-2.34H64.657c-4.42 0-8 3.58-8 8v495.999c0 4.42 3.58 8.001 8 8.001h382.666c4.434 0 8.019-3.58 8.019-8.001v-434a7.954 7.954 0 0 0-2.358-5.649z" clip-rule="evenodd"/></svg>